<svg width="213" height="43" viewBox="0 0 213 43" fill="none" xmlns="http://www.w3.org/2000/svg">
    <path d="M71.5 42.5501C65.8333 42.5501 61.5 40.8667 58.5 37.5C55.5 34.1 54 29.4667 54 23.6C54 19.7334 54.7833 16.3667 56.35 13.5C57.95 10.6 60.1333 8.36672 62.9 6.80005C65.6667 5.23338 68.8 4.45005 72.3 4.45005C73.7667 4.45005 75.1833 4.55005 76.55 4.75005C77.9167 4.91672 79.5333 5.15005 81.4 5.45005C82.8 5.68338 83.5667 5.80005 83.7 5.80005L83.15 16.1001H78.55L77 8.95005C76.6333 8.58338 76 8.28338 75.1 8.05005C74.2 7.81672 73.05 7.70005 71.65 7.70005C68.8167 7.70005 66.5333 9.01672 64.8 11.65C63.1 14.25 62.25 18.0334 62.25 23C62.25 27.8 63.0667 31.7167 64.7 34.75C66.3333 37.7834 68.7167 39.3001 71.85 39.3001C73.35 39.3001 74.5 39.1667 75.3 38.9001C76.1333 38.6001 76.8333 38.1834 77.4 37.6501L79.6 32.5L83.8 32.9001L82.8 40.6501C82.1 40.7167 81.4 40.8501 80.7 41.0501C80.0333 41.2167 79.6167 41.3167 79.45 41.3501C78.1167 41.7167 76.8667 42 75.7 42.2001C74.5667 42.4334 73.1667 42.5501 71.5 42.5501Z" fill="#1C1917"/>
    <path d="M87.7102 28.1501C87.7102 25.0167 88.3268 22.35 89.5602 20.1501C90.8268 17.9501 92.5102 16.3001 94.6102 15.2001C96.7102 14.0667 98.9935 13.5 101.46 13.5C105.66 13.5 108.893 14.8 111.16 17.4001C113.46 19.9667 114.61 23.4667 114.61 27.9001C114.61 31.0667 113.977 33.7667 112.71 36C111.477 38.2001 109.81 39.8501 107.71 40.9501C105.643 42.0167 103.36 42.5501 100.86 42.5501C96.6935 42.5501 93.4602 41.2667 91.1602 38.7001C88.8602 36.1001 87.7102 32.5834 87.7102 28.1501ZM101.26 39.3001C105.027 39.3001 106.91 35.6667 106.91 28.4001C106.91 24.6001 106.46 21.7167 105.56 19.75C104.66 17.75 103.193 16.7501 101.16 16.7501C97.2935 16.7501 95.3602 20.3834 95.3602 27.6501C95.3602 31.4501 95.8268 34.3501 96.7602 36.3501C97.7268 38.3167 99.2268 39.3001 101.26 39.3001Z" fill="#1C1917"/>
    <path d="M122.605 18.1H118.405V15.3L122.605 14.3001V12.1C122.605 9.93338 123.172 7.95005 124.305 6.15005C125.472 4.35005 127.022 2.93338 128.955 1.90005C130.889 0.833382 132.939 0.300049 135.105 0.300049C136.239 0.300049 137.305 0.466715 138.305 0.800048V7.20005C137.972 6.86672 137.305 6.53338 136.305 6.20005C135.339 5.86672 134.322 5.70005 133.255 5.70005C131.955 5.70005 131.022 6.03338 130.455 6.70005C129.922 7.33338 129.655 8.43338 129.655 10V14.2501H136.005V18.1H129.655V38.6001L134.905 39V42H118.655V39L122.605 38.5501V18.1ZM143.005 18.1H138.805V15.3L143.005 14.3001V12.1C143.005 9.93338 143.572 7.95005 144.705 6.15005C145.872 4.35005 147.422 2.93338 149.355 1.90005C151.289 0.833382 153.339 0.300049 155.505 0.300049C156.639 0.300049 157.705 0.466715 158.705 0.800048V7.20005C158.372 6.86672 157.705 6.53338 156.705 6.20005C155.739 5.86672 154.722 5.70005 153.655 5.70005C152.355 5.70005 151.422 6.03338 150.855 6.70005C150.322 7.33338 150.055 8.43338 150.055 10V14.2501H156.405V18.1H150.055V38.6001L155.305 39V42H139.055V39L143.005 38.5501V18.1Z" fill="#1C1917"/>
    <path d="M172.576 42.5501C168.176 42.5501 164.892 41.2667 162.726 38.7001C160.592 36.1001 159.526 32.5667 159.526 28.1C159.526 25.1 160.076 22.5 161.176 20.3001C162.309 18.1001 163.892 16.4167 165.926 15.25C167.959 14.0834 170.309 13.5 172.976 13.5C176.309 13.5 178.876 14.3834 180.676 16.1501C182.476 17.8834 183.409 20.3667 183.476 23.6C183.476 25.8001 183.342 27.4334 183.076 28.5001H166.826C166.959 31.5334 167.676 33.9001 168.976 35.6001C170.276 37.2667 172.126 38.1001 174.526 38.1001C175.826 38.1001 177.159 37.8834 178.526 37.4501C179.926 37.0167 181.026 36.5 181.826 35.9001L183.076 38.6501C182.176 39.6167 180.709 40.5167 178.676 41.3501C176.676 42.1501 174.642 42.5501 172.576 42.5501ZM176.476 25.5001C176.542 24.5667 176.576 23.85 176.576 23.35C176.576 18.9167 175.092 16.7 172.126 16.7C170.492 16.7 169.226 17.35 168.326 18.6501C167.426 19.9501 166.926 22.2334 166.826 25.5001H176.476Z" fill="#1C1917"/>
    <path d="M186.916 34.2001C186.916 31.1667 188.433 28.8834 191.466 27.35C194.533 25.8167 198.483 25.0334 203.316 25.0001V23.8501C203.316 22.4834 203.166 21.4167 202.866 20.6501C202.599 19.8834 202.083 19.3167 201.316 18.9501C200.583 18.5501 199.499 18.35 198.066 18.35C196.433 18.35 194.966 18.5667 193.666 19.0001C192.366 19.4001 191.016 19.9334 189.616 20.6L188.066 17.4001C188.566 16.9667 189.399 16.4501 190.566 15.8501C191.766 15.2501 193.183 14.7334 194.816 14.3001C196.449 13.8334 198.133 13.6 199.866 13.6C202.433 13.6 204.433 13.9334 205.866 14.6C207.333 15.2667 208.383 16.3334 209.016 17.8001C209.649 19.2667 209.966 21.2334 209.966 23.7001V39H212.666V41.8001C211.999 41.9667 211.049 42.1334 209.816 42.3001C208.583 42.4667 207.499 42.5501 206.566 42.5501C205.433 42.5501 204.666 42.3834 204.266 42.0501C203.899 41.7167 203.716 41.0334 203.716 40V38.6501C202.816 39.6501 201.649 40.5501 200.216 41.3501C198.783 42.1501 197.166 42.5501 195.366 42.5501C193.833 42.5501 192.416 42.2334 191.116 41.6001C189.849 40.9334 188.833 39.9834 188.066 38.75C187.299 37.4834 186.916 35.9667 186.916 34.2001ZM198.566 38.4001C199.266 38.4001 200.066 38.2001 200.966 37.8001C201.866 37.3667 202.649 36.85 203.316 36.25V28.0501C200.316 28.0501 198.066 28.5667 196.566 29.6C195.099 30.6 194.366 31.9 194.366 33.5C194.366 35.1 194.733 36.3167 195.466 37.1501C196.233 37.9834 197.266 38.4001 198.566 38.4001Z" fill="#1C1917"/>
    <path fill-rule="evenodd" clip-rule="evenodd" d="M19.5 43C30.2696 43 39 34.2696 39 23.5C39 12.7304 30.2696 4 19.5 4C8.73045 4 0 12.7304 0 23.5C0 34.2696 8.73045 43 19.5 43ZM19.5 25C23.6421 25 27 21.6421 27 17.5C27 13.3579 23.6421 10 19.5 10C15.3579 10 12 13.3579 12 17.5C12 21.6421 15.3579 25 19.5 25Z" fill="#FE4C00"/>
</svg>
